<svg width="32" height="32" viewBox="0 0 32 32" fill="none" xmlns="http://www.w3.org/2000/svg">
<path d="M31.9915 31.9998L31.9995 31.9984V20.2625C31.9995 14.5213 30.7635 10.0986 24.0516 10.0986C20.825 10.0986 18.6597 11.8693 17.7757 13.5479H17.6823V10.6346H11.3184V31.9984H17.945V21.4199C17.945 18.6346 18.473 15.9412 21.9223 15.9412C25.3209 15.9412 25.3716 19.1199 25.3716 21.5985V31.9998H31.9915Z" fill="black"/>
<path d="M0.52832 10.6362H7.16289V32H0.52832V10.6362Z" fill="black"/>
<path d="M3.8426 0C1.72132 0 0 1.72132 0 3.84263C0 5.9639 1.72132 7.7213 3.8426 7.7213C5.9639 7.7213 7.6853 5.9639 7.6853 3.84263C7.6839 1.72132 5.9626 0 3.8426 0Z" fill="black"/>
</svg>
