<svg width="146" height="36" viewBox="0 0 146 36" fill="none" xmlns="http://www.w3.org/2000/svg">
<g clip-path="url(#clip0_5306_536)">
<path d="M0.393555 32.1353H14.4547L0.393555 14.4938V32.1353Z" fill="#3367D6"/>
<path d="M12.8705 20.0718L0 2.40833H12.8705V20.0718Z" fill="#3367D6"/>
<path d="M26.5459 0H12.8711V2.40866H20.1107V32.1154H14.4799V35.327H26.5459V0Z" fill="#3367D6"/>
<path d="M41.6315 25.8202V19.4575C41.6315 19.0415 41.6028 18.5806 41.5453 18.0749C41.4879 17.5691 41.3524 17.0838 41.1391 16.6188C40.9339 16.1457 40.622 15.7582 40.2034 15.4564C39.7931 15.1546 39.2348 15.0036 38.529 15.0036C38.1515 15.0036 37.778 15.0648 37.4087 15.1872C37.0394 15.3096 36.7029 15.5216 36.3992 15.8235C36.1038 16.1171 35.8656 16.525 35.685 17.0471C35.5045 17.561 35.4142 18.2217 35.4142 19.0293L33.6538 18.2829C33.6538 17.1572 33.8712 16.1375 34.3062 15.2239C34.7494 14.3103 35.3978 13.5843 36.2515 13.0459C37.1051 12.4993 38.1556 12.2261 39.403 12.2261C40.3881 12.2261 41.2006 12.3892 41.8408 12.7155C42.4809 13.0418 42.99 13.4578 43.3675 13.9636C43.745 14.4693 44.0241 15.0077 44.2046 15.5787C44.3852 16.1498 44.5001 16.6922 44.5493 17.2061C44.6068 17.7119 44.6355 18.1238 44.6355 18.442V25.8202H41.6315ZM32.4102 25.8202V12.6054H35.0572V16.7045H35.4142V25.8202H32.4102Z" fill="#3367D6"/>
<path d="M53.6762 26.1873C52.3302 26.1873 51.1482 25.8978 50.1305 25.3186C49.1128 24.7394 48.3165 23.9359 47.742 22.9081C47.1757 21.8803 46.8926 20.6975 46.8926 19.3597C46.8926 17.9158 47.1716 16.6637 47.7297 15.6032C48.2878 14.5346 49.0636 13.7066 50.0566 13.1193C51.0497 12.532 52.1989 12.2383 53.5038 12.2383C54.8826 12.2383 56.0523 12.5605 57.0126 13.2049C57.981 13.8412 58.6991 14.7426 59.1669 15.9091C59.635 17.0756 59.8114 18.4501 59.6965 20.0326H56.7541V18.9559C56.7459 17.5202 56.4914 16.4719 55.9908 15.8112C55.4899 15.1505 54.7021 14.8201 53.6269 14.8201C52.4123 14.8201 51.5093 15.1953 50.9184 15.9458C50.3275 16.6881 50.032 17.7771 50.032 19.2128C50.032 20.5506 50.3275 21.5867 50.9184 22.3207C51.5093 23.0549 52.3713 23.422 53.5038 23.422C54.2343 23.422 54.8621 23.2629 55.3874 22.9447C55.921 22.6186 56.3314 22.1495 56.6186 21.5377L59.5488 22.4188C59.0397 23.6096 58.2519 24.5354 57.1849 25.1961C56.1262 25.8571 54.9565 26.1873 53.6762 26.1873ZM49.0964 20.0326V17.8057H58.2436V20.0326H49.0964Z" fill="#3367D6"/>
<path d="M60.4854 25.8202L65.3485 19.1394L60.5838 12.6053H64.0803L67.072 16.8268L70.0144 12.6053H73.5109L68.7464 19.1394L73.634 25.8202H70.1376L67.072 21.452L63.9818 25.8202H60.4854Z" fill="#3367D6"/>
<path d="M83.3897 25.8202C82.5115 25.9834 81.6498 26.0528 80.8043 26.0283C79.9671 26.0121 79.2162 25.861 78.5514 25.5756C77.8864 25.282 77.3817 24.8211 77.037 24.1929C76.7333 23.6219 76.5733 23.0385 76.5569 22.4431C76.5404 21.8477 76.5322 21.1747 76.5322 20.4242V8.93457H79.487V20.2529C79.487 20.7831 79.4911 21.2481 79.4993 21.6479C79.5157 22.0476 79.6019 22.3737 79.7579 22.6266C80.0533 23.1161 80.5252 23.3895 81.1736 23.4466C81.8222 23.5035 82.5608 23.471 83.3897 23.3485V25.8202ZM74.1191 14.918V12.6054H83.3897V14.918H74.1191Z" fill="#3367D6"/>
<path d="M89.0803 25.8202L85.0176 12.5931L86.8272 12.6054L89.979 22.8715L93.143 12.6054H94.7929L97.9569 22.8715L101.133 12.6054H102.931L98.8679 25.8202H97.2919L93.9678 15.2973L90.6561 25.8202H89.0803Z" fill="#1D1D1D"/>
<path d="M108.208 26.1873C107.207 26.1873 106.365 26.008 105.684 25.6491C105.011 25.2901 104.506 24.8129 104.17 24.2175C103.833 23.6218 103.665 22.9734 103.665 22.2717C103.665 21.554 103.809 20.9422 104.096 20.4364C104.391 19.9225 104.789 19.5024 105.29 19.1761C105.799 18.8498 106.386 18.601 107.051 18.4297C107.724 18.2666 108.466 18.1238 109.279 18.0014C110.1 17.8709 110.9 17.7608 111.68 17.6711C112.468 17.5732 113.157 17.4794 113.748 17.3896L113.108 17.7812C113.133 16.476 112.878 15.5094 112.344 14.8813C111.811 14.2532 110.884 13.9391 109.562 13.9391C108.651 13.9391 107.88 14.143 107.248 14.5509C106.624 14.9588 106.185 15.6032 105.93 16.4842L104.17 15.9703C104.473 14.7874 105.085 13.8697 106.004 13.2172C106.923 12.5646 108.118 12.2383 109.587 12.2383C110.802 12.2383 111.832 12.4667 112.677 12.9235C113.531 13.3722 114.134 14.0247 114.487 14.8813C114.651 15.2647 114.758 15.6929 114.807 16.1661C114.856 16.6392 114.881 17.1205 114.881 17.6099V25.8202H113.268V22.5043L113.736 22.7001C113.284 23.834 112.582 24.6986 111.63 25.2942C110.678 25.8896 109.538 26.1873 108.208 26.1873ZM108.417 24.6333C109.262 24.6333 110.001 24.4824 110.633 24.1806C111.265 23.8788 111.774 23.4669 112.16 22.9447C112.546 22.4147 112.796 21.819 112.911 21.1583C113.009 20.7342 113.063 20.2692 113.071 19.7634C113.079 19.2495 113.083 18.8661 113.083 18.6133L113.773 18.9681C113.157 19.0497 112.488 19.1312 111.766 19.2128C111.052 19.2944 110.346 19.3882 109.648 19.4942C108.959 19.6003 108.335 19.7267 107.777 19.8736C107.399 19.9796 107.034 20.1305 106.681 20.3263C106.328 20.5139 106.037 20.7668 105.807 21.0849C105.586 21.4031 105.475 21.7988 105.475 22.2717C105.475 22.6552 105.569 23.0264 105.758 23.3854C105.955 23.7443 106.267 24.042 106.694 24.2785C107.129 24.5152 107.703 24.6333 108.417 24.6333Z" fill="#1D1D1D"/>
<path d="M121.199 25.8202L116.373 12.6053H118.207L122.135 23.4709L126.037 12.6053H127.896L123.07 25.8202H121.199Z" fill="#1D1D1D"/>
<path d="M135.254 26.1873C133.957 26.1873 132.832 25.9019 131.88 25.3309C130.937 24.7598 130.202 23.9564 129.677 22.9204C129.151 21.8844 128.889 20.6689 128.889 19.274C128.889 17.8302 129.147 16.5821 129.664 15.5298C130.182 14.4775 130.908 13.6658 131.843 13.0948C132.787 12.5238 133.9 12.2383 135.18 12.2383C136.493 12.2383 137.613 12.5401 138.541 13.1438C139.468 13.7392 140.17 14.5958 140.646 15.7133C141.122 16.8309 141.34 18.1646 141.299 19.7145H139.452V19.0782C139.419 17.3652 139.046 16.0722 138.332 15.1994C137.626 14.3266 136.591 13.8901 135.229 13.8901C133.801 13.8901 132.705 14.3511 131.942 15.2728C131.187 16.1946 130.809 17.5079 130.809 19.2128C130.809 20.8769 131.187 22.1698 131.942 23.0915C132.705 24.0053 133.785 24.4621 135.18 24.4621C136.132 24.4621 136.961 24.2459 137.667 23.8135C138.381 23.3731 138.943 22.7408 139.353 21.9169L141.04 22.5656C140.515 23.7156 139.739 24.6089 138.713 25.2451C137.696 25.8732 136.542 26.1873 135.254 26.1873ZM130.169 19.7145V18.2095H140.326V19.7145H130.169Z" fill="#1D1D1D"/>
<path d="M143.895 25.8202V23.7279H146V25.8202H143.895Z" fill="#1D1D1D"/>
<path d="M32.3965 35.9123V29.6207H34.6396C35.1498 29.6207 35.5839 29.7787 35.9415 30.0945C36.2992 30.4076 36.478 30.7835 36.478 31.2222C36.478 31.5438 36.3812 31.8348 36.1877 32.0952C35.9972 32.3557 35.7553 32.5193 35.4621 32.5867C35.8433 32.6363 36.1599 32.8118 36.4121 33.1132C36.6672 33.4115 36.7948 33.7609 36.7948 34.1617C36.7948 34.6532 36.6115 35.0684 36.245 35.4077C35.8815 35.7442 35.4372 35.9123 34.9124 35.9123H32.3965ZM33.263 32.3015H34.6133C34.8889 32.3015 35.1219 32.2093 35.3126 32.025C35.5061 31.8409 35.6029 31.6156 35.6029 31.3494C35.6029 31.0978 35.5061 30.8857 35.3126 30.7132C35.1219 30.5378 34.8889 30.45 34.6133 30.45H33.263V32.3015ZM33.263 35.0876H34.8595C35.1616 35.0876 35.4122 34.988 35.6117 34.7892C35.8111 34.5872 35.9106 34.3387 35.9106 34.0433C35.9106 33.7566 35.8096 33.5124 35.6072 33.3106C35.4048 33.1088 35.1586 33.0077 34.8683 33.0077H33.263V35.0876Z" fill="#333333"/>
<path d="M41.9452 35.9123L41.3953 34.5215H38.5673L38.0174 35.9123H37.1025L39.6139 29.6207H40.3616L42.8907 35.9123H41.9452ZM38.9014 33.6922H41.0741L39.9923 30.9327L38.9014 33.6922Z" fill="#333333"/>
<path d="M43.6299 29.6207H44.4173L47.6764 34.2757V29.6207H48.5429V35.9123H47.7732L44.5052 31.266V35.9123H43.6299V29.6207Z" fill="#333333"/>
<path d="M54.7043 35.9123H53.5519L50.6973 32.7928V35.9123H49.8311V29.6207H50.6973V32.4242L53.3363 29.6207H54.4447L51.6167 32.6042L54.7043 35.9123Z" fill="#333333"/>
<path d="M55.2324 29.6207H56.1078V35.9123H55.2324V29.6207Z" fill="#333333"/>
<path d="M57.3877 29.6207H58.1749L61.4342 34.2757V29.6207H62.3005V35.9123H61.531L58.263 31.266V35.9123H57.3877V29.6207Z" fill="#333333"/>
<path d="M69.5096 32.4813C69.5332 32.6012 69.5448 32.7708 69.5448 32.9903C69.5448 33.5634 69.4129 34.0812 69.1489 34.5434C68.885 35.0026 68.5215 35.3609 68.0583 35.6183C67.5978 35.8728 67.0846 36 66.5188 36C65.9294 36 65.3929 35.8582 64.9091 35.5745C64.4253 35.2908 64.0454 34.9017 63.7698 34.4074C63.4942 33.9101 63.3564 33.3602 63.3564 32.7577C63.3564 32.1582 63.4942 31.6126 63.7698 31.1213C64.0454 30.627 64.4253 30.2394 64.9091 29.9585C65.3929 29.6748 65.9294 29.533 66.5188 29.533C67.1257 29.533 67.6712 29.6733 68.155 29.9542C68.6416 30.2349 68.9759 30.6007 69.1578 31.051L68.3837 31.4282C68.2341 31.1066 67.9907 30.8492 67.6535 30.6561C67.3192 30.4631 66.941 30.3666 66.5188 30.3666C65.8795 30.3666 65.3415 30.5977 64.9046 31.0598C64.4676 31.519 64.2493 32.0851 64.2493 32.7577C64.2493 33.2052 64.3491 33.6132 64.5484 33.9819C64.7478 34.3475 65.0249 34.637 65.3797 34.8506C65.7374 35.0612 66.1348 35.1664 66.5715 35.1664C67.1229 35.1664 67.595 34.9925 67.9878 34.6443C68.3837 34.2962 68.6153 33.8532 68.6829 33.3149H66.598V32.4813H69.5096Z" fill="#333333"/>
</g>
<defs>
<clipPath id="clip0_5306_536">
<rect width="146" height="36" fill="white"/>
</clipPath>
</defs>
</svg>
