<svg width="31" height="30" viewBox="0 0 31 30" fill="none" xmlns="http://www.w3.org/2000/svg">
<path d="M8.58751 0.000998761C7.54401 -0.00147124 6.51031 0.202209 5.54581 0.600339C4.58121 0.998469 3.70481 1.58318 2.96681 2.32098C2.22891 3.05878 1.64394 3.93508 1.24558 4.89948C0.847216 5.86398 0.643296 6.89758 0.645526 7.94108V22.059C0.643296 23.1026 0.847276 24.1365 1.24576 25.101C1.64423 26.0656 2.22931 26.942 2.96751 27.6798C3.70561 28.4176 4.58231 29.0023 5.54711 29.4003C6.51181 29.7983 7.5457 30.0018 8.58941 29.9991H22.7054C23.7487 30.0013 24.7822 29.7975 25.7465 29.3992C26.7109 29.001 27.5871 28.4162 28.3248 27.6785C29.0626 26.9407 29.6474 26.0645 30.0456 25.1002C30.4438 24.1358 30.6477 23.1023 30.6455 22.059V7.94108C30.6477 6.89758 30.4438 5.86398 30.0454 4.89948C29.6471 3.93508 29.0621 3.05878 28.3242 2.32098C27.5862 1.58318 26.7098 0.998469 25.7452 0.600339C24.7807 0.202209 23.747 -0.00147124 22.7035 0.000998761H8.58561H8.58751ZM24.4678 4.41258C24.6994 4.41258 24.9289 4.45828 25.1429 4.54688C25.357 4.63558 25.5514 4.76548 25.7153 4.92938C25.8791 5.09318 26.0091 5.28768 26.0977 5.50168C26.1864 5.71578 26.232 5.94518 26.232 6.17688C26.232 6.40858 26.1864 6.63798 26.0977 6.85198C26.0091 7.06608 25.8791 7.26058 25.7153 7.42438C25.5514 7.58818 25.357 7.71818 25.1429 7.80678C24.9289 7.89548 24.6994 7.94108 24.4678 7.94108C23.9998 7.94108 23.5511 7.75528 23.2202 7.42438C22.8894 7.09348 22.7035 6.64478 22.7035 6.17688C22.7035 5.70898 22.8894 5.26018 23.2202 4.92938C23.5511 4.59848 23.9998 4.41258 24.4678 4.41258ZM15.6446 6.61748C17.8664 6.62138 19.996 7.50588 21.5669 9.07718C23.1378 10.6484 24.0218 12.7783 24.0253 15.0001C24.0213 17.2216 23.1371 19.3509 21.5662 20.9218C19.9954 22.4926 17.866 23.3768 15.6446 23.3808C13.4231 23.3768 11.2937 22.4926 9.72291 20.9218C8.15211 19.3509 7.26781 17.2216 7.26381 15.0001C7.26781 12.7786 8.15211 10.6492 9.72291 9.07838C11.2937 7.50758 13.4231 6.62328 15.6446 6.61938V6.61748ZM15.6446 8.38358C14.775 8.38158 13.9137 8.55138 13.1099 8.88318C12.3062 9.21498 11.5759 9.70218 10.961 10.317C10.346 10.9318 9.85851 11.6619 9.52651 12.4656C9.19451 13.2692 9.0245 14.1305 9.02621 15.0001C9.02431 15.8698 9.19411 16.7313 9.52601 17.5351C9.85791 18.339 10.3453 19.0694 10.9603 19.6843C11.5753 20.2993 12.3056 20.7867 13.1095 21.1186C13.9134 21.4505 14.7749 21.6204 15.6446 21.6184C16.5142 21.6204 17.3758 21.4505 18.1796 21.1186C18.9835 20.7867 19.7139 20.2993 20.3288 19.6843C20.9438 19.0694 21.4312 18.339 21.7631 17.5351C22.095 16.7313 22.2649 15.8698 22.2629 15.0001C22.2649 14.1304 22.095 13.2689 21.7631 12.465C21.4312 11.6611 20.9438 10.9308 20.3288 10.3158C19.7139 9.70078 18.9835 9.21338 18.1796 8.88148C17.3758 8.54958 16.5142 8.37978 15.6446 8.38168V8.38358Z" fill="black"/>
</svg>
